{
    "asset" : {
        "generator" : "Khronos glTF Blender I/O v1.6.16",
        "version" : "2.0"
    },
    "scene" : 0,
    "scenes" : [
        {
            "name" : "Scene",
            "nodes" : [
                0
            ]
        }
    ],
    "nodes" : [
        {
            "mesh" : 0,
            "name" : "Curve.003",
            "rotation" : [
                0,
                0,
                -1,
                -1.6292068494294654e-07
            ],
            "scale" : [
                120,
                120,
                120
            ],
            "translation" : [
                0,
                1.9376177787780762,
                0
            ]
        }
    ],
    "materials" : [
        {
            "doubleSided" : true,
            "name" : "SVGMat.001",
            "pbrMetallicRoughness" : {
                "baseColorFactor" : [
                    0,
                    0,
                    0,
                    1
                ],
                "metallicFactor" : 0,
                "roughnessFactor" : 0.4000000059604645
            }
        }
    ],
    "meshes" : [
        {
            "name" : "Curve.016",
            "primitives" : [
                {
                    "attributes" : {
                        "POSITION" : 0,
                        "NORMAL" : 1,
                        "TEXCOORD_0" : 2
                    },
                    "indices" : 3,
                    "material" : 0
                }
            ]
        }
    ],
    "accessors" : [
        {
            "bufferView" : 0,
            "componentType" : 5126,
            "count" : 46455,
            "max" : [
                0.14792697131633759,
                0.014782982878386974,
                3.967879536048713e-07
            ],
            "min" : [
                8.689093533575942e-07,
                0,
                -0.15045924484729767
            ],
            "type" : "VEC3"
        },
        {
            "bufferView" : 1,
            "componentType" : 5126,
            "count" : 46455,
            "type" : "VEC3"
        },
        {
            "bufferView" : 2,
            "componentType" : 5126,
            "count" : 46455,
            "type" : "VEC2"
        },
        {
            "bufferView" : 3,
            "componentType" : 5123,
            "count" : 72984,
            "type" : "SCALAR"
        }
    ],
    "bufferViews" : [
        {
            "buffer" : 0,
            "byteLength" : 557460,
            "byteOffset" : 0
        },
        {
            "buffer" : 0,
            "byteLength" : 557460,
            "byteOffset" : 557460
        },
        {
            "buffer" : 0,
            "byteLength" : 371640,
            "byteOffset" : 1114920
        },
        {
            "buffer" : 0,
            "byteLength" : 145968,
            "byteOffset" : 1486560
        }
    ],
    "buffers" : [
        {
            "byteLength" : 1632528,
            "uri" : "data:application/octet-stream;base64,"
        }
    ]
}
